<mxfile host="drawio-plugin" modified="2022-12-01T10:15:19.183Z" agent="5.0 (Windows NT 6.2; Win64; x64) AppleWebKit/537.36 (KHTML, like Gecko) Chrome/98.0.4758.102 Safari/537.36" etag="7P_DQdFA4YJztbNM8q-h" version="20.5.3" type="embed"><diagram id="CJDzfcEAW3a94lBmLpoj" name="(micro)service"><mxGraphModel dx="825" dy="784" grid="1" gridSize="10" guides="1" tooltips="1" connect="1" arrows="1" fold="1" page="1" pageScale="1" pageWidth="1169" pageHeight="827" math="0" shadow="0"><root><mxCell id="0"/><mxCell id="1" parent="0"/><mxCell id="39QdA14apApRqSJCKbdf-1" value="Nutrition Facts Service" style="swimlane;whiteSpace=wrap;html=1;startSize=20;" parent="1" vertex="1"><mxGeometry x="445" y="400" width="230" height="56" as="geometry"><mxRectangle x="570" y="120" width="170" height="30" as="alternateBounds"/></mxGeometry></mxCell><mxCell id="39QdA14apApRqSJCKbdf-2" value="Сервис рассчёта КБЖУ" style="text;html=1;align=center;verticalAlign=middle;resizable=0;points=[];autosize=1;strokeColor=none;fillColor=none;" parent="39QdA14apApRqSJCKbdf-1" vertex="1"><mxGeometry x="33.75" y="26" width="160" height="30" as="geometry"/></mxCell><mxCell id="39QdA14apApRqSJCKbdf-3" value="Recipe Service" style="swimlane;whiteSpace=wrap;html=1;startSize=20;" parent="1" vertex="1"><mxGeometry x="445" y="320" width="230" height="56" as="geometry"><mxRectangle x="570" y="120" width="170" height="30" as="alternateBounds"/></mxGeometry></mxCell><mxCell id="39QdA14apApRqSJCKbdf-4" value="Сервис для работы с рецептами" style="text;html=1;align=center;verticalAlign=middle;resizable=0;points=[];autosize=1;strokeColor=none;fillColor=none;" parent="39QdA14apApRqSJCKbdf-3" vertex="1"><mxGeometry x="2.5" y="26" width="210" height="30" as="geometry"/></mxCell><mxCell id="39QdA14apApRqSJCKbdf-6" value="Ingredients Service" style="swimlane;whiteSpace=wrap;html=1;startSize=20;" parent="1" vertex="1"><mxGeometry x="445" y="240" width="230" height="56" as="geometry"><mxRectangle x="570" y="120" width="170" height="30" as="alternateBounds"/></mxGeometry></mxCell><mxCell id="39QdA14apApRqSJCKbdf-7" value="Сервис для работы с ингредиентами" style="text;html=1;align=center;verticalAlign=middle;resizable=0;points=[];autosize=1;strokeColor=none;fillColor=none;" parent="39QdA14apApRqSJCKbdf-6" vertex="1"><mxGeometry x="-2.5" y="26" width="230" height="30" as="geometry"/></mxCell><mxCell id="39QdA14apApRqSJCKbdf-9" value="User Service" style="swimlane;whiteSpace=wrap;html=1;startSize=20;" parent="1" vertex="1"><mxGeometry x="445" y="164" width="227.5" height="56" as="geometry"><mxRectangle x="570" y="120" width="170" height="30" as="alternateBounds"/></mxGeometry></mxCell><mxCell id="39QdA14apApRqSJCKbdf-10" value="Сервис для работы с пользователями" style="text;html=1;align=center;verticalAlign=middle;resizable=0;points=[];autosize=1;strokeColor=none;fillColor=none;" parent="39QdA14apApRqSJCKbdf-9" vertex="1"><mxGeometry x="-5" y="26" width="240" height="30" as="geometry"/></mxCell><mxCell id="39QdA14apApRqSJCKbdf-14" value="API Gateway" style="swimlane;whiteSpace=wrap;html=1;fillColor=none;" parent="1" vertex="1"><mxGeometry x="120" y="220" width="120" height="200" as="geometry"/></mxCell><mxCell id="39QdA14apApRqSJCKbdf-18" value="HTTP API" style="rounded=0;whiteSpace=wrap;html=1;verticalAlign=middle;horizontal=0;" parent="1" vertex="1"><mxGeometry x="100" y="260" width="40" height="140" as="geometry"/></mxCell><mxCell id="39QdA14apApRqSJCKbdf-21" value="Message Broker" style="rounded=0;whiteSpace=wrap;html=1;fillColor=none;verticalAlign=middle;horizontal=0;" parent="1" vertex="1"><mxGeometry x="310" y="160" width="50" height="320" as="geometry"/></mxCell><mxCell id="39QdA14apApRqSJCKbdf-22" value="" style="endArrow=classic;startArrow=classic;html=1;rounded=0;exitX=1;exitY=0.5;exitDx=0;exitDy=0;entryX=0;entryY=0.5;entryDx=0;entryDy=0;" parent="1" source="39QdA14apApRqSJCKbdf-14" target="39QdA14apApRqSJCKbdf-21" edge="1"><mxGeometry width="50" height="50" relative="1" as="geometry"><mxPoint x="490" y="440" as="sourcePoint"/><mxPoint x="540" y="390" as="targetPoint"/></mxGeometry></mxCell><mxCell id="39QdA14apApRqSJCKbdf-25" value="" style="endArrow=classic;startArrow=classic;html=1;rounded=0;entryX=-0.002;entryY=0.25;entryDx=0;entryDy=0;entryPerimeter=0;exitX=1;exitY=0.117;exitDx=0;exitDy=0;exitPerimeter=0;" parent="1" source="39QdA14apApRqSJCKbdf-21" target="39QdA14apApRqSJCKbdf-10" edge="1"><mxGeometry width="50" height="50" relative="1" as="geometry"><mxPoint x="490" y="440" as="sourcePoint"/><mxPoint x="540" y="390" as="targetPoint"/></mxGeometry></mxCell><mxCell id="39QdA14apApRqSJCKbdf-26" value="" style="endArrow=classic;startArrow=classic;html=1;rounded=0;entryX=0.004;entryY=0.3;entryDx=0;entryDy=0;entryPerimeter=0;exitX=1.06;exitY=0.359;exitDx=0;exitDy=0;exitPerimeter=0;" parent="1" source="39QdA14apApRqSJCKbdf-21" target="39QdA14apApRqSJCKbdf-7" edge="1"><mxGeometry width="50" height="50" relative="1" as="geometry"><mxPoint x="490" y="440" as="sourcePoint"/><mxPoint x="540" y="390" as="targetPoint"/></mxGeometry></mxCell><mxCell id="39QdA14apApRqSJCKbdf-27" value="" style="endArrow=classic;startArrow=classic;html=1;rounded=0;entryX=0;entryY=0.5;entryDx=0;entryDy=0;exitX=0.98;exitY=0.588;exitDx=0;exitDy=0;exitPerimeter=0;" parent="1" source="39QdA14apApRqSJCKbdf-21" target="39QdA14apApRqSJCKbdf-3" edge="1"><mxGeometry width="50" height="50" relative="1" as="geometry"><mxPoint x="490" y="440" as="sourcePoint"/><mxPoint x="540" y="390" as="targetPoint"/></mxGeometry></mxCell><mxCell id="39QdA14apApRqSJCKbdf-28" value="" style="endArrow=classic;startArrow=classic;html=1;rounded=0;" parent="1" edge="1"><mxGeometry width="50" height="50" relative="1" as="geometry"><mxPoint x="360" y="430" as="sourcePoint"/><mxPoint x="440" y="430" as="targetPoint"/></mxGeometry></mxCell><mxCell id="39QdA14apApRqSJCKbdf-29" value="User DB" style="shape=cylinder3;whiteSpace=wrap;html=1;boundedLbl=1;backgroundOutline=1;size=15;fillColor=none;" parent="1" vertex="1"><mxGeometry x="760" y="164" width="100" height="52" as="geometry"/></mxCell><mxCell id="39QdA14apApRqSJCKbdf-30" value="Ingredients DB" style="shape=cylinder3;whiteSpace=wrap;html=1;boundedLbl=1;backgroundOutline=1;size=15;fillColor=none;" parent="1" vertex="1"><mxGeometry x="760" y="238" width="100" height="58" as="geometry"/></mxCell><mxCell id="39QdA14apApRqSJCKbdf-31" value="Recipe DB" style="shape=cylinder3;whiteSpace=wrap;html=1;boundedLbl=1;backgroundOutline=1;size=15;fillColor=none;" parent="1" vertex="1"><mxGeometry x="760" y="322" width="100" height="52" as="geometry"/></mxCell><mxCell id="39QdA14apApRqSJCKbdf-32" value="" style="endArrow=classic;startArrow=classic;html=1;rounded=0;entryX=0;entryY=0.5;entryDx=0;entryDy=0;entryPerimeter=0;exitX=0.959;exitY=-0.031;exitDx=0;exitDy=0;exitPerimeter=0;" parent="1" source="39QdA14apApRqSJCKbdf-10" target="39QdA14apApRqSJCKbdf-29" edge="1"><mxGeometry width="50" height="50" relative="1" as="geometry"><mxPoint x="610" y="370" as="sourcePoint"/><mxPoint x="660" y="320" as="targetPoint"/></mxGeometry></mxCell><mxCell id="39QdA14apApRqSJCKbdf-33" value="" style="endArrow=classic;startArrow=classic;html=1;rounded=0;entryX=0;entryY=0.5;entryDx=0;entryDy=0;entryPerimeter=0;exitX=1;exitY=0.5;exitDx=0;exitDy=0;" parent="1" source="39QdA14apApRqSJCKbdf-6" target="39QdA14apApRqSJCKbdf-30" edge="1"><mxGeometry width="50" height="50" relative="1" as="geometry"><mxPoint x="610" y="370" as="sourcePoint"/><mxPoint x="660" y="320" as="targetPoint"/></mxGeometry></mxCell><mxCell id="39QdA14apApRqSJCKbdf-34" value="" style="endArrow=classic;startArrow=classic;html=1;rounded=0;entryX=0;entryY=0.5;entryDx=0;entryDy=0;entryPerimeter=0;exitX=1;exitY=0.5;exitDx=0;exitDy=0;" parent="1" source="39QdA14apApRqSJCKbdf-3" target="39QdA14apApRqSJCKbdf-31" edge="1"><mxGeometry width="50" height="50" relative="1" as="geometry"><mxPoint x="610" y="370" as="sourcePoint"/><mxPoint x="660" y="320" as="targetPoint"/></mxGeometry></mxCell></root></mxGraphModel></diagram></mxfile>